<?xml version="1.0" standalone="no"?>
<!DOCTYPE svg PUBLIC "-//W3C//DTD SVG 20010904//EN"
 "http://www.w3.org/TR/2001/REC-SVG-20010904/DTD/svg10.dtd">
<svg version="1.0" xmlns="http://www.w3.org/2000/svg" preserveAspectRatio="xMidYMid meet">
<symbol id="input_icon" width="20px" height="20px" viewBox="0 0 512.000000 512.000000">
<g transform="translate(0.000000,512.000000) scale(0.100000,-0.100000)"
fill="currentColor" stroke="none">
<path d="M545 4466 c-166 -41 -293 -176 -325 -345 -6 -31 -10 -234 -10 -487
l0 -434 215 0 215 0 0 430 0 430 1920 0 1920 0 0 -1500 0 -1500 -1920 0 -1920
0 0 430 0 430 -215 0 -215 0 0 -437 c0 -488 5 -535 62 -631 62 -102 167 -176
286 -201 75 -16 3929 -16 4004 0 173 37 305 171 337 343 14 78 15 3033 1 3121
-29 177 -162 317 -338 354 -80 17 -3948 14 -4017 -3z"/>
<path d="M2348 3095 l-3 -320 -1067 -3 -1068 -2 0 -210 0 -210 1068 -2 1067
-3 5 -313 5 -312 417 417 c230 230 420 420 422 423 3 3 -186 197 -419 430
l-425 425 -2 -320z"/>
</g>
</symbol>
</svg>
