<?xml version="1.0" ?>
<svg id="Guide" xmlns="http://www.w3.org/2000/svg">
  <symbol id="list_icon" width="30px" height="25px" viewBox="0 0 40 40">
    <g transform="translate(-4, 2)">
      <defs><style>.cls-1{fill:#231f20;}</style></defs><title/>
      <path fill="currentColor" class="cls-1" d="M28,2H4A1,1,0,0,0,3,3V29a1,1,0,0,0,1,1H28a1,1,0,0,0,1-1V3A1,1,0,0,0,28,2ZM27,28H5V4H27ZM9,10a1,1,0,0,1,1-1H20a1,1,0,0,1,0,2H10A1,1,0,0,1,9,10Zm0,6a1,1,0,0,1,1-1h6a1,1,0,0,1,0,2H10A1,1,0,0,1,9,16Zm0,6a1,1,0,0,1,1-1H20a1,1,0,0,1,0,2H10A1,1,0,0,1,9,22Z"/>
    </g>
  </symbol>
</svg>
