<?xml version="1.0" standalone="no"?>
<!DOCTYPE svg PUBLIC "-//W3C//DTD SVG 20010904//EN"
 "http://www.w3.org/TR/2001/REC-SVG-20010904/DTD/svg10.dtd">
<svg version="1.0" xmlns="http://www.w3.org/2000/svg"
 preserveAspectRatio="xMidYMid meet">
<symbol id="sent_icon" width="20px" height="20px" viewBox="0 0 512.000000 512.000000">
<g transform="translate(0.000000,512.000000) scale(0.100000,-0.100000)"
fill="currentColor" stroke="none">
<path d="M4910 5106 c-122 -47 -4821 -1991 -4844 -2004 -36 -21 -66 -76 -66
-122 0 -41 29 -94 61 -111 12 -6 461 -197 997 -424 535 -228 975 -415 976
-417 1 -2 188 -442 415 -978 446 -1055 433 -1030 516 -1046 29 -5 48 -1 82 15
37 18 49 31 73 84 81 175 1993 4817 1997 4848 14 103 -107 193 -207 155z
m-1649 -1660 l-1144 -1144 -101 43 c-555 233 -1483 628 -1489 634 -5 5 3840
1604 3873 1610 3 1 -510 -514 -1139 -1143z m528 -992 c-429 -1039 -786 -1902
-792 -1917 -11 -27 -33 20 -348 765 l-337 793 1126 1127 c619 620 1127 1126
1129 1124 1 -1 -349 -852 -778 -1892z"/>
</g>
</symbol>
</svg>
