<svg id="Layer_1" data-name="Layer 1" xmlns="http://www.w3.org/2000/svg" viewBox="0 0 200 200"><defs><style>.cls-1{fill:#231f20;}</style></defs><title>Wondicon - UI (Free)</title><path class="cls-1" d="M162.14,175.69H37.86a13.57,13.57,0,0,1-13.55-13.55V75a5,5,0,0,1,10,0v87.14a3.55,3.55,0,0,0,3.55,3.55H162.14a3.55,3.55,0,0,0,3.55-3.55V75a5,5,0,0,1,10,0v87.14A13.57,13.57,0,0,1,162.14,175.69Z"/><path class="cls-1" d="M132,55a5,5,0,0,1-2.7-.8L106.83,39.68a12.61,12.61,0,0,0-13.66,0L70.7,54.2a5,5,0,0,1-5.42-8.4L87.74,31.28a22.64,22.64,0,0,1,24.52,0L134.72,45.8A5,5,0,0,1,132,55Z"/><path class="cls-1" d="M100,125.6a24.42,24.42,0,0,1-14.15-4.49l-59.43-42a5,5,0,0,1,.18-8.28L47.29,57.43a5,5,0,1,1,5.42,8.4L38.23,75.19,91.62,113a14.55,14.55,0,0,0,16.76,0l53.39-37.76-14.48-9.36a5,5,0,0,1,5.42-8.4L173.4,70.8a5,5,0,0,1,.18,8.28l-59.43,42A24.42,24.42,0,0,1,100,125.6Z"/><path class="cls-1" d="M150,94.63a5,5,0,0,1-5-5V55H55V89.63a5,5,0,0,1-10,0V50a5,5,0,0,1,5-5H150a5,5,0,0,1,5,5V89.63A5,5,0,0,1,150,94.63Z"/><path class="cls-1" d="M125,92H75a5,5,0,0,1,0-10h50a5,5,0,0,1,0,10Z"/><path class="cls-1" d="M125,74H75a5,5,0,0,1,0-10h50a5,5,0,0,1,0,10Z"/></svg>